<?xml version="1.0" encoding="utf-8"?>
<!-- Generator: Adobe Illustrator 16.0.0, SVG Export Plug-In . SVG Version: 6.00 Build 0)  -->
<!DOCTYPE svg PUBLIC "-//W3C//DTD SVG 1.1//EN" "http://www.w3.org/Graphics/SVG/1.1/DTD/svg11.dtd">
<svg version="1.1" xmlns="http://www.w3.org/2000/svg" xmlns:xlink="http://www.w3.org/1999/xlink" x="0px" y="0px" width="18px"
	 height="18px" viewBox="0 0 18 18" enable-background="new 0 0 18 18" xml:space="preserve">
<g id="라이브러리" display="none">
	<g display="inline">
		<path fill="#093959" d="M16.676,5.511h-3.12c-0.405,0-0.734,0.3-0.734,0.67v2.252c-0.066-0.019-0.139-0.031-0.212-0.031H9.489
			c-0.073,0-0.142,0.012-0.208,0.03V2.145c0-0.37-0.33-0.671-0.736-0.671h-3.12c-0.405,0-0.735,0.301-0.735,0.671v3.398
			C4.623,5.524,4.552,5.511,4.479,5.511H1.358c-0.406,0-0.734,0.3-0.734,0.67v9.675c0,0.37,0.328,0.67,0.734,0.67h3.121
			c0.181,0,0.345-0.063,0.473-0.162c0.128,0.099,0.292,0.162,0.473,0.162h3.12c0.181,0,0.344-0.063,0.472-0.161
			c0.128,0.099,0.292,0.161,0.472,0.161h3.121c0.182,0,0.345-0.063,0.473-0.162c0.129,0.099,0.292,0.162,0.474,0.162h3.12
			c0.405,0,0.734-0.3,0.734-0.67V6.181C17.41,5.812,17.081,5.511,16.676,5.511z M4.69,15.856c0,0.105-0.095,0.193-0.211,0.193H1.358
			c-0.117,0-0.212-0.088-0.212-0.193V6.181c0-0.106,0.095-0.192,0.212-0.192h3.121c0.117,0,0.211,0.086,0.211,0.192V15.856z
			 M8.757,9.044c0,0.01-0.003,0.019-0.003,0.029v6.783c0,0.003,0.001,0.005,0.001,0.009c-0.005,0.102-0.096,0.185-0.21,0.185h-3.12
			c-0.117,0-0.212-0.088-0.212-0.193V6.181V2.145c0-0.107,0.095-0.193,0.212-0.193h3.12c0.117,0,0.212,0.086,0.212,0.193V9.044z
			 M12.821,15.856c0,0.105-0.096,0.193-0.212,0.193H9.489c-0.113,0-0.204-0.083-0.21-0.185c0-0.004,0.002-0.006,0.002-0.009V9.059
			c0.008-0.1,0.097-0.179,0.208-0.179h3.121c0.116,0,0.212,0.086,0.212,0.193V15.856z M16.889,15.856
			c0,0.105-0.096,0.193-0.213,0.193h-3.12c-0.117,0-0.212-0.088-0.212-0.193V9.073V6.181c0-0.106,0.095-0.192,0.212-0.192h3.12
			c0.117,0,0.213,0.086,0.213,0.192V15.856z"/>
		<rect x="4.69" y="4.073" fill="#093959" width="4.067" height="0.922"/>
		<rect x="9.017" y="10.952" fill="#093959" width="4.067" height="0.922"/>
		<rect x="13.084" y="7.916" fill="#093959" width="4.067" height="0.922"/>
		<rect x="0.866" y="7.916" fill="#093959" width="4.067" height="0.922"/>
	</g>
</g>
<g id="프로젝트" display="none">
	<g display="inline">
		<g>
			<path fill="#093959" d="M5.77,4.958c0-1.79,1.457-3.246,3.248-3.246c1.79,0,3.247,1.456,3.247,3.246
				c0,0.107-0.005,0.214-0.016,0.318h1.05c0.008-0.106,0.013-0.211,0.013-0.318c0-2.367-1.926-4.293-4.293-4.293
				S4.723,2.591,4.723,4.958c0,0.107,0.005,0.212,0.013,0.318h1.049C5.775,5.172,5.77,5.066,5.77,4.958z"/>
		</g>
		<path fill="#093959" d="M15.537,4.427H2.496c-1.367,0-2.479,1.112-2.479,2.479v7.948c0,1.367,1.112,2.48,2.479,2.48h13.041
			c1.367,0,2.479-1.113,2.479-2.48V6.906C18.017,5.539,16.904,4.427,15.537,4.427z M1.716,6.906c0-0.43,0.35-0.779,0.78-0.779
			h13.041c0.43,0,0.779,0.35,0.779,0.779v7.948c0,0.43-0.35,0.78-0.779,0.78H2.496c-0.43,0-0.78-0.351-0.78-0.78V6.906z"/>
		<g>
			<g>
				<path fill="#093959" d="M8.089,12.646v3.838H6.926V8.766h1.984c1.464,0,2.198,0.628,2.198,1.883
					c0,0.607-0.222,1.098-0.665,1.467c-0.442,0.369-0.998,0.547-1.667,0.531H8.089z M8.089,9.693v2.043h0.593
					c0.803,0,1.205-0.349,1.205-1.042c0-0.668-0.394-1.001-1.18-1.001H8.089z"/>
			</g>
		</g>
	</g>
</g>
<g id="프로젝트_추가_1_" display="none">
	<g display="inline">
		<g>
			<path fill="#093959" d="M5.77,4.958c0-1.79,1.456-3.246,3.247-3.246c1.79,0,3.247,1.456,3.247,3.246
				c0,0.107-0.005,0.214-0.016,0.318h1.05c0.008-0.106,0.013-0.211,0.013-0.318c0-2.367-1.926-4.293-4.293-4.293
				S4.724,2.591,4.724,4.958c0,0.107,0.005,0.212,0.013,0.318h1.049C5.775,5.172,5.77,5.066,5.77,4.958z"/>
		</g>
		<path fill="#093959" d="M15.537,4.427H2.496c-1.367,0-2.479,1.112-2.479,2.479v7.948c0,1.367,1.112,2.48,2.479,2.48h13.041
			c1.367,0,2.479-1.113,2.479-2.48V6.906C18.017,5.539,16.904,4.427,15.537,4.427z M1.716,6.906c0-0.43,0.35-0.779,0.78-0.779
			h13.041c0.43,0,0.779,0.35,0.779,0.779v7.948c0,0.43-0.35,0.78-0.779,0.78H2.496c-0.43,0-0.78-0.351-0.78-0.78V6.906z"/>
		<g>
			<g>
				<path fill="#093959" d="M8.089,12.646v3.838H6.926V8.766h1.985c1.464,0,2.198,0.628,2.198,1.883
					c0,0.607-0.222,1.098-0.665,1.467c-0.442,0.369-0.998,0.547-1.667,0.531H8.089z M8.089,9.693v2.043h0.593
					c0.803,0,1.205-0.349,1.205-1.042c0-0.668-0.393-1.001-1.181-1.001H8.089z"/>
			</g>
		</g>
	</g>
	<rect x="9.527" y="15.18" display="inline" fill="#093959" width="5.55" height="2.609"/>
	<g display="inline">
		<rect x="10.795" y="15.891" fill="#093959" width="3.016" height="1.204"/>
		<rect x="11.7" y="14.985" fill="#093959" width="1.204" height="3.015"/>
	</g>
</g>
<g id="화살표" display="none">
	<g display="inline">
		<g>
			<polygon fill="#093959" points="9.017,13.723 0.017,4.722 0.461,4.278 9.017,12.836 17.572,4.278 18.017,4.722 			"/>
		</g>
		<g>
			<polygon fill="#093959" points="2.624,5.804 9.017,12.196 15.41,5.804 			"/>
		</g>
	</g>
</g>
<g id="프로젝트2" display="none">
	<g display="inline">
		<g>
			<path fill="#093959" d="M16.091,7.587c0,0.133-0.146,0.24-0.324,0.24H9.538c-0.18,0-0.325-0.107-0.325-0.24V7.184
				c0-0.133,0.146-0.24,0.325-0.24h6.229c0.178,0,0.324,0.107,0.324,0.24V7.587z"/>
			<path fill="#093959" d="M16.091,9.354c0,0.131-0.146,0.238-0.324,0.238H9.538c-0.18,0-0.325-0.107-0.325-0.238V8.949
				c0-0.132,0.146-0.24,0.325-0.24h6.229c0.178,0,0.324,0.108,0.324,0.24V9.354z"/>
		</g>
		<path fill="#093959" d="M16.412,4.56h-0.321v0.436h0.321c0.622,0,1.127,0.506,1.127,1.126v4.276c0,0.622-0.505,1.127-1.127,1.127
			h-1.847l-0.654,1.479h-1.179l-0.652-1.479H5.955l-0.654,1.479H4.122l-0.654-1.479H1.622c-0.622,0-1.126-0.505-1.126-1.127V6.122
			c0-0.62,0.505-1.126,1.126-1.126h14.791V4.56H1.622c-0.861,0-1.563,0.702-1.563,1.562v4.276c0,0.862,0.702,1.563,1.563,1.563
			h1.562l0.655,1.481h1.746l0.654-1.481h5.557l0.654,1.481h1.746l0.654-1.481h1.563c0.861,0,1.563-0.7,1.563-1.563V6.122
			C17.976,5.261,17.273,4.56,16.412,4.56z"/>
		<path fill="#093959" d="M3.907,6.049c-1.226,0-2.218,0.994-2.218,2.219c0,1.225,0.992,2.218,2.218,2.218
			c1.225,0,2.218-0.993,2.218-2.218C6.125,7.043,5.132,6.049,3.907,6.049z M3.907,9.472c-0.664,0-1.202-0.539-1.202-1.203
			c0-0.665,0.538-1.202,1.202-1.202s1.202,0.537,1.202,1.202C5.109,8.933,4.571,9.472,3.907,9.472z"/>
	</g>
</g>
<g id="프로젝트_추가2" display="none">
	<g display="inline">
		<g>
			<path fill="#093959" d="M16.138,8.17c0,0.134-0.146,0.242-0.326,0.242h-6.27c-0.181,0-0.327-0.108-0.327-0.242V7.764
				c0-0.134,0.146-0.241,0.327-0.241h6.27c0.18,0,0.326,0.107,0.326,0.241V8.17z"/>
			<path fill="#093959" d="M16.138,9.948c0,0.133-0.146,0.241-0.326,0.241h-6.27c-0.181,0-0.327-0.108-0.327-0.241V9.541
				c0-0.132,0.146-0.241,0.327-0.241h6.27c0.18,0,0.326,0.109,0.326,0.241V9.948z"/>
		</g>
		<path fill="#093959" d="M16.462,5.123h-0.324v0.438h0.324c0.625,0,1.134,0.509,1.134,1.134V11c0,0.626-0.509,1.135-1.134,1.135
			h-1.859l-0.658,1.488h-1.187l-0.657-1.488H5.934l-0.658,1.488H4.089l-0.658-1.488H1.572c-0.625,0-1.133-0.509-1.133-1.135V6.695
			c0-0.625,0.508-1.134,1.133-1.134h10.109V5.123H1.572c-0.867,0-1.573,0.705-1.573,1.572V11c0,0.868,0.707,1.573,1.573,1.573h1.573
			l0.659,1.489h1.758l0.659-1.489h5.595l0.657,1.489h1.758l0.659-1.489h1.573c0.866,0,1.573-0.705,1.573-1.573V6.695
			C18.035,5.828,17.328,5.123,16.462,5.123z"/>
		<g>
			<path fill="#093959" d="M15.366,5.619h-1.145v1.145h-0.532V5.619h-1.146V5.085h1.146V3.938h0.532v1.147h1.145V5.619z"/>
		</g>
		<path fill="#093959" d="M3.873,6.623c-1.234,0-2.233,1-2.233,2.232c0,1.233,0.999,2.233,2.233,2.233c1.233,0,2.232-1,2.232-2.233
			C6.105,7.623,5.106,6.623,3.873,6.623z M3.873,10.067c-0.669,0-1.211-0.542-1.211-1.212c0-0.668,0.542-1.21,1.211-1.21
			c0.668,0,1.21,0.542,1.21,1.21C5.083,9.525,4.542,10.067,3.873,10.067z"/>
	</g>
</g>
<g id="데이터로드" display="none">
	<g display="inline">
		<path fill="#093959" d="M14.91,7.554l-0.919-0.206l0.46,1.203c-0.305-0.068-0.616-0.103-0.93-0.103
			c-1.131,0-2.192,0.439-2.987,1.236c-1.46,1.458-1.656,3.739-0.467,5.425l0.123,0.175l0.539-0.54l-0.083-0.123
			c-0.933-1.376-0.756-3.229,0.42-4.403c0.655-0.655,1.528-1.016,2.456-1.016c0.547,0,1.093,0.13,1.578,0.377
			c0.113,0.057,0.378,0.219,0.379,0.22l0.471,0.288L14.91,7.554z"/>
		<path fill="#093959" d="M16.978,10.237l-0.123-0.175l-0.541,0.541l0.083,0.123c0.936,1.374,0.76,3.226-0.417,4.402
			c-0.655,0.654-1.526,1.014-2.455,1.014c-0.548,0-1.094-0.13-1.58-0.377c-0.112-0.057-0.379-0.219-0.379-0.22l-0.469-0.284
			l1.039,2.528L13.055,18l-0.46-1.206c0.305,0.069,0.617,0.104,0.932,0.104c1.129,0,2.188-0.439,2.985-1.235
			C17.972,14.204,18.167,11.922,16.978,10.237z"/>
		<g>
			<polygon fill="#093959" points="15.775,13.285 12.979,13.285 12.979,10.489 13.589,10.489 13.589,12.675 15.775,12.675 			"/>
		</g>
	</g>
	<path display="inline" fill="#093959" d="M3.164,8.47C4.125,8.799,5.238,8.973,6.38,8.973c1.143,0,2.255-0.174,3.217-0.503
		c0.959-0.327,1.717-0.789,2.186-1.334c0.34-0.394,0.513-0.808,0.513-1.231V4.576v0c-0.026,0.032-0.055,0.065-0.081,0.096
		c-0.537,0.62-1.378,1.139-2.432,1.5C8.762,6.522,7.585,6.708,6.38,6.708C5.176,6.708,4,6.522,2.979,6.173
		c-0.859-0.292-1.575-0.69-2.101-1.163C0.758,4.902,0.647,4.789,0.546,4.673c-0.027-0.031-0.054-0.064-0.08-0.096c0,0,0,0,0,0v1.328
		c0,0.424,0.171,0.838,0.51,1.231C1.447,7.681,2.205,8.143,3.164,8.47z"/>
	<path display="inline" fill="#093959" d="M3.164,5.635C4.126,5.963,5.238,6.137,6.38,6.137c1.143,0,2.255-0.173,3.217-0.502
		c0.121-0.042,0.238-0.085,0.35-0.131c0.793-0.315,1.423-0.728,1.835-1.204c0.34-0.393,0.513-0.808,0.513-1.232
		c0-0.786-0.592-1.538-1.666-2.121C9.5,0.337,7.99,0,6.38,0S3.263,0.337,2.132,0.948C1.058,1.53,0.466,2.282,0.466,3.068
		c0,0.424,0.171,0.839,0.51,1.232C1.447,4.845,2.205,5.306,3.164,5.635z"/>
	<path display="inline" fill="#093959" d="M9.548,9.077C8.583,9.378,7.497,9.543,6.38,9.543C5.176,9.543,4,9.358,2.979,9.009
		c-0.859-0.293-1.575-0.69-2.101-1.163C0.758,7.737,0.647,7.624,0.546,7.508c-0.027-0.031-0.054-0.063-0.08-0.096
		c0,0,0-0.001,0-0.001v1.328c0,0.424,0.171,0.838,0.51,1.231c0.471,0.545,1.229,1.007,2.188,1.334
		c0.961,0.329,2.074,0.503,3.217,0.503c0.57,0,1.133-0.044,1.672-0.127C8.318,10.682,8.838,9.786,9.548,9.077z"/>
	<path display="inline" fill="#093959" d="M7.929,12.269c-0.505,0.068-1.022,0.11-1.549,0.11c-1.204,0-2.381-0.186-3.401-0.534
		c-0.859-0.294-1.575-0.691-2.101-1.163c-0.121-0.108-0.232-0.222-0.333-0.338c-0.027-0.031-0.054-0.064-0.08-0.097c0,0,0,0,0,0
		v1.328c0,0.424,0.171,0.838,0.51,1.23c0.471,0.546,1.229,1.007,2.188,1.335c0.961,0.329,2.074,0.503,3.217,0.503
		c0.558,0,1.109-0.043,1.638-0.124c-0.104-0.435-0.166-0.887-0.166-1.354C7.853,12.86,7.883,12.562,7.929,12.269z"/>
</g>
<g id="자물쇠" display="none">
	<g display="inline">
		<path fill="#093959" d="M9.017,2.617c-1.838,0-3.333,1.496-3.333,3.333v2.177h0.421V5.95c0-0.777,0.303-1.508,0.854-2.059
			c0.551-0.55,1.282-0.854,2.059-0.854c1.606,0,2.914,1.306,2.914,2.912v2.177h0.421V5.95C12.352,4.113,10.854,2.617,9.017,2.617z"
			/>
		<g>
			<path fill="#093959" d="M12.727,8.127H5.308C4.783,8.201,4.384,8.561,4.384,8.994l0,5.505c0,0.489,0.504,0.884,1.125,0.884h7.015
				c0.621,0,1.126-0.395,1.126-0.884V8.994C13.65,8.561,13.251,8.201,12.727,8.127z M9.411,12.982H8.624v-2.455h0.788V12.982z"/>
		</g>
	</g>
</g>
<g id="자물쇠풀림" display="none">
	<g display="inline">
		<path fill="#093959" d="M13.649,8.994c0-0.434-0.398-0.793-0.924-0.867H6.13h-0.42H5.309C4.783,8.201,4.384,8.561,4.384,8.994
			V14.5c0,0.488,0.503,0.883,1.125,0.883h7.015c0.621,0,1.125-0.395,1.125-0.883 M9.411,12.983H8.623v-2.456h0.788V12.983z"/>
		<path fill="#093959" d="M6.13,5.95c0-0.777,0.303-1.508,0.854-2.058c0.55-0.551,1.282-0.854,2.058-0.854
			c1.408,0,2.586,1.004,2.855,2.335h0.427c-0.274-1.563-1.641-2.755-3.282-2.755c-1.838,0-3.333,1.495-3.333,3.333v2.177h0.42V5.95z
			"/>
	</g>
</g>
<g id="애러" display="none">
	<path display="inline" fill="#093959" d="M17.79,14.778L10.258,1.731c-0.256-0.444-0.729-0.717-1.242-0.717S8.03,1.287,7.774,1.731
		L0.208,14.835c-0.255,0.443-0.255,0.99,0,1.434c0.257,0.444,0.73,0.718,1.243,0.718h15.131c0,0,0,0,0.001,0
		c0.791,0,1.434-0.643,1.434-1.435C18.017,15.267,17.934,15,17.79,14.778z M9.848,6.638l-0.194,5.865H8.357L8.168,6.638H9.848z
		 M9.703,14.927c-0.177,0.167-0.384,0.25-0.62,0.25c-0.32,0-0.569-0.086-0.749-0.257c-0.179-0.171-0.269-0.377-0.269-0.617
		c0-0.255,0.093-0.465,0.28-0.628c0.187-0.164,0.414-0.246,0.68-0.246s0.491,0.085,0.671,0.255c0.182,0.169,0.272,0.375,0.272,0.619
		C9.969,14.551,9.88,14.759,9.703,14.927z"/>
</g>
<g id="추가" display="none">
	<polygon display="inline" fill="#093959" points="9.437,8.581 9.437,2.447 8.598,2.447 8.598,8.581 2.464,8.581 2.464,9.42 
		8.598,9.42 8.598,15.553 9.437,15.553 9.437,9.42 15.57,9.42 15.57,8.581 	"/>
</g>
<g id="취소" display="none">
	<polygon display="inline" fill="#093959" points="13.951,4.66 13.356,4.066 9.017,8.406 4.677,4.066 4.083,4.66 8.423,9 
		4.083,13.34 4.677,13.934 9.017,9.594 13.356,13.934 13.951,13.34 9.611,9 	"/>
</g>
<g id="찾기" display="none">
	<path display="inline" fill="#093959" d="M13.057,11.899c2.303-2.875,2.124-7.094-0.539-9.758c-2.856-2.855-7.503-2.855-10.359,0
		c-2.855,2.856-2.855,7.503,0,10.359c2.664,2.663,6.883,2.843,9.757,0.539L16.874,18l1.143-1.143L13.057,11.899z M11.576,11.559
		c-0.194,0.194-0.399,0.371-0.611,0.531c-2.347,1.788-5.721,1.612-7.864-0.531C0.959,9.416,0.783,6.042,2.57,3.695
		c0.162-0.213,0.338-0.417,0.531-0.611C3.295,2.891,3.5,2.714,3.712,2.553c2.346-1.788,5.72-1.611,7.864,0.531
		c2.143,2.143,2.318,5.517,0.53,7.864C11.946,11.16,11.77,11.366,11.576,11.559z"/>
</g>
<g id="로딩" display="none">
	<g display="inline">
		<path fill="#093959" d="M9.593,4.204V0H8.441v4.204C8.63,4.181,8.822,4.168,9.017,4.168C9.212,4.168,9.404,4.181,9.593,4.204z"/>
		<path fill="#093959" d="M4.221,8.424H0.017v1.152h4.204C4.198,9.387,4.185,9.196,4.185,9C4.185,8.805,4.198,8.613,4.221,8.424z"/>
		<path fill="#093959" d="M13.849,9c0,0.196-0.014,0.387-0.034,0.576h4.202V8.424h-4.202C13.835,8.613,13.849,8.805,13.849,9z"/>
		<path fill="#093959" d="M8.441,13.798V18h1.152v-4.202c-0.189,0.02-0.381,0.034-0.576,0.034
			C8.822,13.832,8.63,13.817,8.441,13.798z"/>
		<path fill="#093959" d="M5.218,11.984l-2.973,2.972l0.816,0.815l2.972-2.973C5.73,12.562,5.456,12.286,5.218,11.984z"/>
		<path fill="#093959" d="M6.033,5.201L3.061,2.229L2.245,3.044l2.973,2.972C5.456,5.713,5.73,5.44,6.033,5.201z"/>
		<path fill="#093959" d="M12.816,6.016l2.973-2.972l-0.816-0.815L12,5.201C12.304,5.44,12.578,5.713,12.816,6.016z"/>
		<path fill="#093959" d="M12,12.799l2.973,2.973l0.816-0.815l-2.974-2.972C12.578,12.286,12.304,12.562,12,12.799z"/>
	</g>
</g>
<g id="수정" display="none">
	<g display="inline">
		
			<rect x="7.505" y="4.217" transform="matrix(0.7071 0.7071 -0.7071 0.7071 8.9814 -3.7969)" fill="#093959" width="3.138" height="9.453"/>
		<polygon fill="#093959" points="4.198,11.601 3.372,14.645 6.417,13.817 		"/>
		<path fill="#093959" d="M14.469,5.767c0.292-0.292,0.248-0.808-0.097-1.153l-0.969-0.968c-0.346-0.345-0.861-0.389-1.153-0.098
			l-0.52,0.52l2.22,2.219L14.469,5.767z"/>
	</g>
</g>
<g id="버리기" display="none">
	<polygon display="inline" fill="#093959" points="15.013,17.444 3.021,17.444 1.521,4.817 16.534,4.817 	"/>
	<g display="inline">
		<path fill="#093959" d="M11.302,4.074H6.733c-0.667,0-1.209-0.542-1.209-1.21V1.766c0-0.667,0.542-1.21,1.209-1.21H11.3
			c0.668,0,1.21,0.543,1.21,1.21v1.098C12.51,3.531,11.968,4.074,11.302,4.074z M6.733,1.218c-0.302,0-0.547,0.246-0.547,0.548
			v1.098c0,0.302,0.245,0.548,0.547,0.548H11.3l0,0c0.304,0,0.549-0.246,0.549-0.548V1.766c0-0.302-0.245-0.548-0.549-0.548H6.733z"
			/>
	</g>
	<g display="inline">
		<path fill="#093959" d="M17.508,3.898c0,0.201-0.163,0.365-0.364,0.365H0.89c-0.201,0-0.364-0.164-0.364-0.365V3.251
			c0-0.201,0.163-0.364,0.364-0.364h16.253c0.201,0,0.364,0.164,0.364,0.364V3.898z"/>
	</g>
	<g display="inline">
		<rect x="8.57" y="7.811" fill="#093959" width="0.893" height="6.56"/>
	</g>
	<g display="inline">
		<g>
			<polygon fill="#093959" points="13.166,7.811 12.269,7.811 11.619,14.37 12.517,14.37 			"/>
		</g>
		<g>
			<polygon fill="#093959" points="4.868,7.811 5.517,14.37 6.414,14.37 5.766,7.811 			"/>
		</g>
	</g>
</g>
<g id="이전" display="none">
	<polygon display="inline" fill="#093959" points="10.185,11.475 10.185,16.621 0.017,8.995 10.171,1.379 10.226,7.386 
		18.015,7.378 18.017,8.991 8.626,9 8.585,4.584 2.706,8.995 8.571,13.396 8.571,11.475 	"/>
</g>
<g id="이후" display="none">
	<polygon display="inline" fill="#093959" points="7.85,11.475 7.85,16.621 18.017,8.995 7.863,1.379 7.808,7.386 0.019,7.378 
		0.017,8.991 9.408,9 9.449,4.584 15.329,8.995 9.462,13.396 9.462,11.475 	"/>
	<path display="inline" fill="#093959" d="M9.017,9"/>
	<path display="inline" fill="#093959" d="M9.017,9"/>
</g>
<g id="칼럼">
	<g>
		<path fill="#093959" d="M0.637,5.187v10.99c0,0.664,0.537,1.204,1.2,1.204h9.945V5.187H0.637z"/>
	</g>
	<path fill="#093959" d="M13.223,17.381h3.037c0.629,0,1.138-0.54,1.138-1.204V5.187h-4.175V17.381z"/>
	<path fill="#093959" d="M17.397,1.803c0-0.653-0.601-1.183-1.342-1.183H1.979c-0.741,0-1.342,0.529-1.342,1.183v1.944h16.761V1.803
		z"/>
</g>
<g id="필터" display="none">
	<path display="inline" fill="#093959" d="M0.017,1.327l6.802,8.245v3.937l4.395,3.165V9.572l6.803-8.246H0.017z M9.017,8.29
		L5.322,4.231h7.391L9.017,8.29z"/>
</g>
<g id="정렬" display="none">
	<g display="inline">
		<g>
			<g>
				<rect x="4.559" y="3.77" fill="#093959" width="13.458" height="1.885"/>
			</g>
			<g>
				<rect x="4.559" y="7.541" fill="#093959" width="10.769" height="1.885"/>
			</g>
			<g>
				<rect x="4.559" y="11.311" fill="#093959" width="7.208" height="1.886"/>
			</g>
		</g>
		<polygon fill="#093959" points="3.272,1.66 2.229,1.66 2.232,13.821 0.754,12.344 0.017,13.082 3.275,16.34 		"/>
	</g>
</g>
<g id="변환" display="none">
	<g display="inline">
		<path fill="#093959" d="M7.577,7.892H5.909L5.272,6.005H2.307L1.685,7.892H0.017L2.939,0h1.765L7.577,7.892z M4.891,4.793
			L3.926,1.935c-0.04-0.114-0.08-0.332-0.124-0.654H3.765c-0.029,0.24-0.074,0.454-0.134,0.643l-0.97,2.869H4.891z"/>
	</g>
	<g display="inline">
		<path fill="#093959" d="M12.403,18v-7.892h2.686c0.812,0,1.446,0.161,1.903,0.483c0.458,0.325,0.687,0.776,0.687,1.355
			c0,0.422-0.134,0.795-0.401,1.118s-0.63,0.554-1.084,0.693v0.017c0.559,0.072,1.001,0.278,1.331,0.622
			c0.328,0.343,0.492,0.769,0.492,1.276c0,0.708-0.254,1.271-0.761,1.693C16.748,17.79,16.069,18,15.218,18H12.403z M13.931,11.282
			v2.07h0.831c0.412,0,0.733-0.099,0.966-0.293c0.232-0.195,0.348-0.47,0.348-0.824c0-0.635-0.453-0.953-1.361-0.953H13.931z
			 M13.931,14.532v2.294h1.052c0.45,0,0.801-0.104,1.051-0.312c0.25-0.206,0.375-0.495,0.375-0.861c0-0.748-0.493-1.121-1.479-1.121
			H13.931z"/>
	</g>
	<g display="inline">
		<polygon fill="#093959" points="3.29,14.61 3.29,10.46 2.234,10.46 2.234,15.667 8.829,15.667 7.549,17.363 8.393,18 
			10.947,14.61 		"/>
		<polygon fill="#093959" points="9.204,2.334 10.483,0.636 9.641,0 7.086,3.39 14.744,3.39 14.744,7.541 15.8,7.541 15.8,2.334 		
			"/>
	</g>
</g>
<g id="데이터_포맷" display="none">
	<path display="inline" fill="#093959" d="M18.017,13.846v-1.358l-1.133-0.294c-0.088-0.338-0.225-0.659-0.398-0.955l0.596-1.01
		L16.12,9.268l-1.009,0.596c-0.295-0.173-0.616-0.308-0.957-0.397l-0.293-1.134h-1.356l-0.293,1.134
		c-0.34,0.09-0.661,0.225-0.955,0.397l-1.011-0.596l-0.961,0.961l0.596,1.01c-0.172,0.296-0.308,0.617-0.396,0.955l-1.135,0.294
		v1.358l1.135,0.291c0.089,0.342,0.225,0.662,0.396,0.958l-0.596,1.008l0.961,0.962l1.011-0.597
		c0.294,0.174,0.615,0.309,0.955,0.398L12.505,18h1.356l0.293-1.134c0.341-0.09,0.662-0.225,0.957-0.398l1.009,0.597l0.961-0.962
		l-0.596-1.008c0.174-0.296,0.311-0.616,0.398-0.958L18.017,13.846z M13.183,15.313c-1.186,0-2.147-0.96-2.147-2.146
		c0-1.186,0.962-2.147,2.147-2.147c1.187,0,2.148,0.962,2.148,2.147C15.331,14.354,14.369,15.313,13.183,15.313z"/>
	<path display="inline" fill="#093959" d="M2.715,8.47c0.961,0.329,2.074,0.503,3.217,0.503S8.188,8.799,9.149,8.47
		c0.959-0.328,1.717-0.789,2.185-1.334c0.341-0.394,0.514-0.808,0.514-1.231V4.576v0c-0.026,0.032-0.055,0.065-0.081,0.096
		c-0.538,0.621-1.379,1.14-2.433,1.501C8.313,6.522,7.137,6.708,5.932,6.708S3.551,6.522,2.531,6.174
		c-0.858-0.293-1.574-0.691-2.1-1.163C0.31,4.902,0.198,4.789,0.097,4.673C0.07,4.642,0.044,4.609,0.018,4.577c0,0,0,0,0,0v1.328
		c0,0.424,0.171,0.838,0.511,1.231C0.999,7.681,1.756,8.142,2.715,8.47z"/>
	<path display="inline" fill="#093959" d="M2.715,5.635c0.962,0.329,2.074,0.502,3.217,0.502s2.255-0.174,3.217-0.502
		C9.27,5.593,9.387,5.55,9.5,5.504c0.792-0.315,1.423-0.728,1.834-1.204c0.341-0.393,0.514-0.808,0.514-1.232
		c0-0.786-0.592-1.539-1.666-2.121C9.051,0.337,7.541,0,5.932,0c-1.61,0-3.118,0.337-4.249,0.948
		C0.609,1.53,0.017,2.283,0.017,3.068c0,0.424,0.171,0.839,0.511,1.232C0.999,4.845,1.756,5.306,2.715,5.635z"/>
	<path display="inline" fill="#093959" d="M9.1,9.077C8.133,9.378,7.048,9.543,5.932,9.543c-1.205,0-2.381-0.185-3.401-0.534
		c-0.858-0.293-1.574-0.691-2.1-1.163C0.31,7.737,0.198,7.624,0.097,7.508C0.07,7.477,0.044,7.444,0.018,7.412c0,0,0-0.001,0-0.001
		v1.328c0,0.424,0.171,0.838,0.511,1.231c0.471,0.545,1.228,1.007,2.187,1.334c0.961,0.329,2.074,0.503,3.217,0.503
		c0.57,0,1.132-0.044,1.672-0.127C7.87,10.682,8.39,9.786,9.1,9.077z"/>
	<path display="inline" fill="#093959" d="M7.48,12.269c-0.505,0.068-1.022,0.11-1.548,0.11c-1.205,0-2.381-0.186-3.401-0.534
		c-0.858-0.294-1.574-0.691-2.1-1.163c-0.121-0.108-0.232-0.222-0.333-0.338c-0.027-0.031-0.053-0.064-0.08-0.097c0,0,0,0,0,0v1.328
		c0,0.424,0.171,0.838,0.511,1.23c0.471,0.546,1.228,1.007,2.187,1.335c0.961,0.329,2.074,0.503,3.217,0.503
		c0.558,0,1.108-0.043,1.638-0.124c-0.104-0.435-0.166-0.887-0.166-1.354C7.404,12.86,7.435,12.562,7.48,12.269z"/>
</g>
<g id="텍스트" display="none">
	<polygon display="inline" fill="#093959" points="0.017,1.113 0.017,5.686 2.329,5.686 2.329,3.425 7.861,3.425 7.861,14.576 
		5.488,14.576 5.488,16.887 12.546,16.887 12.546,14.576 10.173,14.576 10.173,3.425 15.705,3.425 15.705,5.686 18.017,5.686 
		18.017,1.113 	"/>
</g>
<g id="연산" display="none">
	<g display="inline">
		<polygon fill="#093959" points="4.967,16.507 2.005,10.167 0.122,10.167 0.122,8.38 3.143,8.38 4.846,12.025 9.087,1.493 
			18.122,1.493 18.122,3.279 10.294,3.279 		"/>
	</g>
	<g display="inline">
		<path fill="#093959" d="M15.599,16.507l-0.839-1.351c-0.343-0.521-0.563-0.907-0.824-1.339h-0.027
			c-0.192,0.432-0.427,0.818-0.715,1.339l-0.77,1.351h-2.391l2.679-3.775l-2.583-3.687h2.404l0.813,1.362
			c0.273,0.454,0.479,0.819,0.699,1.239h0.028c0.22-0.476,0.398-0.807,0.632-1.239l0.784-1.362h2.39l-2.609,3.643l2.747,3.819
			H15.599z"/>
	</g>
</g>
<g id="조인" display="none">
	<g display="inline">
		<path fill="#093959" d="M12.849,10.838c-0.008-0.077-0.022-0.151-0.032-0.228c-0.378-2.808-2.602-5.032-5.409-5.41
			c-0.141,0.423-0.22,0.874-0.22,1.343c0,0.076,0.008,0.15,0.012,0.227c2.1,0.285,3.763,1.948,4.048,4.048
			c0.01,0.075,0.02,0.15,0.026,0.227c0.007,0.074,0.009,0.15,0.012,0.225c0.003,0.063,0.01,0.124,0.01,0.187
			c0,0.483-0.073,0.949-0.209,1.389c-0.022,0.075-0.053,0.147-0.079,0.221s-0.051,0.148-0.081,0.222
			c-0.718,1.704-2.404,2.905-4.366,2.905c-2.611,0-4.735-2.125-4.735-4.736c0-1.962,1.2-3.649,2.905-4.365
			C4.717,6.909,4.704,6.728,4.704,6.543c0-0.394,0.041-0.778,0.106-1.154c-2.634,0.762-4.568,3.19-4.568,6.066
			c0,3.485,2.835,6.32,6.319,6.32c2.875,0,5.304-1.934,6.067-4.567c0.022-0.079,0.041-0.157,0.061-0.238
			c0.02-0.078,0.045-0.156,0.062-0.236c0.086-0.413,0.129-0.841,0.129-1.278c0-0.129-0.011-0.257-0.019-0.385
			C12.855,10.993,12.856,10.914,12.849,10.838z"/>
		<path fill="#093959" d="M11.473,0.225c-2.875,0-5.305,1.933-6.067,4.567C5.383,4.871,5.365,4.95,5.345,5.029
			C5.325,5.109,5.3,5.186,5.284,5.267c-0.085,0.413-0.13,0.839-0.13,1.276c0,0.131,0.012,0.259,0.02,0.387
			c0.004,0.077,0.004,0.155,0.012,0.232S5.208,7.313,5.217,7.39c0.379,2.807,2.602,5.032,5.409,5.41
			c0.141-0.424,0.219-0.875,0.219-1.345c0-0.075-0.006-0.149-0.011-0.224c-2.099-0.286-3.762-1.949-4.047-4.049
			c-0.011-0.075-0.021-0.15-0.027-0.227C6.753,6.882,6.751,6.807,6.748,6.73c-0.003-0.063-0.01-0.124-0.01-0.188
			c0-0.482,0.073-0.947,0.208-1.387c0.022-0.075,0.052-0.147,0.079-0.221c0.026-0.074,0.05-0.148,0.081-0.221
			c0.717-1.705,2.404-2.905,4.366-2.905c2.611,0,4.735,2.125,4.735,4.734c0,1.964-1.201,3.651-2.906,4.367
			c0.015,0.181,0.028,0.361,0.028,0.545c0,0.395-0.041,0.779-0.107,1.157c2.636-0.763,4.569-3.191,4.569-6.069
			C17.792,3.06,14.958,0.225,11.473,0.225z"/>
	</g>
</g>
<g id="피벗" display="none">
	<g display="inline">
		<circle fill="#093959" cx="9.017" cy="9" r="2.079"/>
		<g>
			<path fill="#093959" d="M0.874,9.1L0.88,9.68l1.711-0.317l0.003-0.403c0.019-3.074,2.227-5.712,5.25-6.273
				c1.683-0.312,3.389,0.051,4.805,1.023c0.834,0.573,1.529,1.343,2.01,2.227c0.102,0.186,0.328,0.69,0.352,0.742l0,0l1.811-4.216
				l-1.449-1.566l-0.88,2.15c-0.361-0.363-0.448-0.466-0.871-0.757c-1.794-1.232-3.957-1.692-6.09-1.296
				C3.623,1.718,0.823,5.127,0.874,9.1z"/>
			<path fill="#093959" d="M17.16,8.9l-0.006-0.579l-1.713,0.316l-0.002,0.404c-0.02,3.073-2.227,5.712-5.25,6.272
				c-1.683,0.312-3.389-0.051-4.805-1.023c-0.834-0.573-1.529-1.344-2.01-2.227c-0.102-0.187-0.328-0.69-0.351-0.741l0,0
				l-1.811,4.215l1.45,1.566l0.879-2.149c0.36,0.361,0.448,0.465,0.87,0.756c1.794,1.232,3.958,1.692,6.091,1.296
				C14.411,16.281,17.211,12.872,17.16,8.9z"/>
		</g>
	</g>
</g>
<g id="그룹" display="none">
	<g display="inline">
		<rect x="0.017" fill="#093959" width="7.895" height="7.895"/>
		<rect x="0.017" y="10.105" fill="#093959" width="7.895" height="7.895"/>
		<rect x="10.122" fill="#093959" width="7.895" height="7.895"/>
		<rect x="10.122" y="10.105" fill="#093959" width="7.895" height="7.895"/>
	</g>
</g>
<g id="행" display="none">
	<g display="inline">
		<rect fill="#093959" width="18" height="2.571"/>
		<rect y="15.428" fill="#093959" width="18" height="2.572"/>
		<rect y="5.143" fill="#093959" width="18" height="2.571"/>
		<rect y="10.286" fill="#093959" width="18" height="2.571"/>
	</g>
	
		<text transform="matrix(1 0 0 1 -25.7275 150)" display="inline" font-family="'AdobeMyungjoStd-Medium-KSCpc-EUC-H'" font-size="12">breadcrumb</text>
</g>
<g id="ID" display="none">
	<g display="inline">
		<circle cx="9" cy="2.906" r="3.097"/>
		<path d="M14.237,12.176c0,2.729-2.799,3.17-5.237,3.17c-2.439,0-5.237-0.44-5.237-3.17c0-2.728,2.798-5.762,5.237-5.762
			C11.438,6.414,14.237,9.448,14.237,12.176z"/>
	</g>
	<path display="inline" d="M14.237,16.587c0,0.1-0.08,0.18-0.18,0.18H3.942c-0.099,0-0.18-0.08-0.18-0.18l0,0
		c0-0.1,0.081-0.18,0.18-0.18h10.115C14.157,16.407,14.237,16.487,14.237,16.587L14.237,16.587z"/>
	<path display="inline" d="M14.237,18.012c0,0.1-0.08,0.18-0.18,0.18H3.942c-0.099,0-0.18-0.08-0.18-0.18l0,0
		c0-0.1,0.081-0.18,0.18-0.18h10.115C14.157,17.832,14.237,17.912,14.237,18.012L14.237,18.012z"/>
	<polygon display="inline" fill="#FFFFFF" points="8.041,7.073 9.958,7.073 9.469,8.011 8.53,8.011 	"/>
	<polygon display="inline" fill="#FFFFFF" points="9.708,13.479 9.469,8.453 9,8.453 8.53,8.453 8.292,13.479 9,14.376 9,14.376 
		9,14.376 	"/>
</g>
</svg>
