<svg xmlns="http://www.w3.org/2000/svg" width="18" height="18" viewbox="0 0 18 18"><g><path d="M14.786 7.407h-1.27V2.512L12 2.982V1.95L14.65 1h.136zM15.82 16.928h-4.684v-.93l2.21-2.355c.305-.332.53-.622.675-.87.147-.246.22-.48.22-.703 0-.303-.077-.542-.23-.716-.153-.173-.373-.26-.657-.26-.307 0-.55.105-.726.317-.176.213-.265.49-.265.835H11c0-.416.1-.797.298-1.14.2-.345.48-.615.843-.81.365-.196.776-.294 1.236-.294.704 0 1.25.17 1.64.508.39.338.585.815.585 1.432 0 .337-.086.68-.262 1.03-.175.352-.475.76-.9 1.226l-1.555 1.64h2.94v1.092h-.003z"></path><path stroke="null" d="M6.202 4.045c1.105 0 2 .895 2 2v8h-2v-3h-2v3h-2v-8c0-1.105.895-2 2-2h2zm-2 5h2v-3h-2v3z"></path></g></svg>