<?xml version="1.0" encoding="utf-8"?>
<!-- Generator: Adobe Illustrator 16.0.0, SVG Export Plug-In . SVG Version: 6.00 Build 0)  -->
<!DOCTYPE svg PUBLIC "-//W3C//DTD SVG 1.1//EN" "http://www.w3.org/Graphics/SVG/1.1/DTD/svg11.dtd">
<svg version="1.1" id="Layer_1" xmlns="http://www.w3.org/2000/svg" xmlns:xlink="http://www.w3.org/1999/xlink" x="0px" y="0px"
	 width="24px" height="24px" viewBox="0 0 24 24" enable-background="new 0 0 24 24" xml:space="preserve">
<path fill="#FFFFFF" d="M17.5,11c2.485,0,4.5-2.015,4.5-4.5S19.985,2,17.5,2S13,4.015,13,6.5C13.003,8.984,15.016,10.997,17.5,11z
	 M17.5,4C18.881,4,20,5.119,20,6.5S18.881,9,17.5,9S15,7.881,15,6.5S16.119,4,17.5,4z M6.5,13C4.015,13,2,15.015,2,17.5
	S4.015,22,6.5,22s4.5-2.015,4.5-4.5C10.997,15.016,8.984,13.003,6.5,13z M6.5,20C5.119,20,4,18.881,4,17.5S5.119,15,6.5,15
	S9,16.119,9,17.5S7.881,20,6.5,20z M9,2H4C2.896,2,2,2.896,2,4v5c0,1.104,0.896,2,2,2h5c1.104,0,2-0.896,2-2V4
	C11,2.896,10.104,2,9,2z M4,9V4h5v5H4z M20,13h-5c-1.104,0-2,0.896-2,2v5c0,1.104,0.896,2,2,2h5c1.104,0,2-0.896,2-2v-5
	C22,13.896,21.104,13,20,13z M15,20v-5h5v5H15z"/>
<path fill="none" d="M0,0h24v24H0V0z"/>
</svg>
