<svg xmlns="http://www.w3.org/2000/svg" width="24" height="24" viewbox="0 0 24 24"><path d="M17.5 11A4.5 4.5 0 1 0 13 6.5a4.505 4.505 0 0 0 4.5 4.5zm0-7A2.5 2.5 0 1 1 15 6.5 2.5 2.5 0 0 1 17.5 4zm-11 9a4.5 4.5 0 1 0 4.5 4.5A4.505 4.505 0 0 0 6.5 13zm0 7A2.5 2.5 0 1 1 9 17.5 2.5 2.5 0 0 1 6.5 20zM9 2H4a2 2 0 0 0-2 2v5a2 2 0 0 0 2 2h5a2 2 0 0 0 2-2V4a2 2 0 0 0-2-2zM4 9V4h5v5zm16 4h-5a2 2 0 0 0-2 2v5a2 2 0 0 0 2 2h5a2 2 0 0 0 2-2v-5a2 2 0 0 0-2-2zm-5 7v-5h5v5z"></path><path d="M0 0h24v24H0z" fill="none"></path></svg>