<?xml version="1.0" encoding="utf-8"?>
<!-- Generator: Adobe Illustrator 16.0.0, SVG Export Plug-In . SVG Version: 6.00 Build 0)  -->
<!DOCTYPE svg PUBLIC "-//W3C//DTD SVG 1.1//EN" "http://www.w3.org/Graphics/SVG/1.1/DTD/svg11.dtd">
<svg version="1.1" id="Layer_1" xmlns="http://www.w3.org/2000/svg" xmlns:xlink="http://www.w3.org/1999/xlink" x="0px" y="0px"
	 width="24px" height="24px" viewBox="0 0 24 24" enable-background="new 0 0 24 24" xml:space="preserve">
<path fill="#FFFFFF" d="M20,3c-1.818,0.007-3.403,1.239-3.857,3H8V5c0-1.104-0.896-2-2-2H2C0.896,3,0,3.896,0,5v4
	c0,1.104,0.896,2,2,2h4c1.104,0,2-0.896,2-2V8h4.388c-0.185,0.31-0.326,0.645-0.42,0.993L10.1,15.482
	C9.876,16.373,9.077,16.997,8.16,17H8v-1c0-1.104-0.896-2-2-2H2c-1.104,0-2,0.896-2,2v4c0,1.104,0.896,2,2,2h4c1.104,0,2-0.896,2-2
	v-1h0.16c1.821,0,3.412-1.23,3.87-2.993l1.871-6.49C14.124,8.627,14.923,8.003,15.84,8h0.301c0.556,2.134,2.736,3.413,4.87,2.857
	s3.413-2.737,2.856-4.871C23.409,4.226,21.818,2.998,20,3z M2,9V5h4v4H2z M2,20v-4h4v4H2z M20,9c-1.104,0-2-0.896-2-2s0.896-2,2-2
	s2,0.896,2,2S21.104,9,20,9z"/>
<path fill="none" d="M0,0h24v24H0V0z"/>
</svg>
