<svg xmlns="http://www.w3.org/2000/svg" width="24" height="24" viewbox="0 0 24 24"><path d="M10 8l6 4-6 4V8zM6.352 4.93a8.9 8.9 0 0 1 4.62-1.915V1A10.976 10.976 0 0 0 4.92 3.5zM4.93 6.36L3.5 4.92A11.053 11.053 0 0 0 1 11h2.015A8.957 8.957 0 0 1 4.93 6.36zM6.427 19.02L5 20.455A11.005 11.005 0 1 0 13.022 1v2.015a9.02 9.02 0 0 1-1 17.98 8.914 8.914 0 0 1-5.595-1.974zM3.015 13H1a10.915 10.915 0 0 0 2.5 6.03l1.43-1.43A8.85 8.85 0 0 1 3.014 13z"></path><path d="M0 0h24v24H0z" fill="none"></path></svg>