<?xml version="1.0" encoding="utf-8"?>
<!-- Generator: Adobe Illustrator 16.0.0, SVG Export Plug-In . SVG Version: 6.00 Build 0)  -->
<!DOCTYPE svg PUBLIC "-//W3C//DTD SVG 1.1//EN" "http://www.w3.org/Graphics/SVG/1.1/DTD/svg11.dtd">
<svg version="1.1" id="Layer_1" xmlns="http://www.w3.org/2000/svg" xmlns:xlink="http://www.w3.org/1999/xlink" x="0px" y="0px"
	 width="24px" height="24px" viewBox="0 0 24 24" enable-background="new 0 0 24 24" xml:space="preserve">
<path fill="#FFFFFF" d="M10,8l6,4l-6,4V8z M6.352,4.93c1.325-1.067,2.929-1.731,4.62-1.915V1C8.747,1.198,6.636,2.07,4.92,3.5
	L6.352,4.93z M4.93,6.36L3.5,4.92C2.069,6.646,1.197,8.767,1,11h2.015C3.198,9.302,3.862,7.692,4.93,6.36z M6.427,19.02L5,20.455
	c4.693,3.861,11.629,3.188,15.49-1.506S23.678,7.32,18.984,3.458C17.287,2.062,15.211,1.206,13.021,1v2.015
	c4.949,0.573,8.496,5.049,7.923,9.999c-0.525,4.535-4.356,7.962-8.922,7.981c-2.036,0-4.01-0.696-5.595-1.974V19.02z M3.015,13H1
	c0.199,2.218,1.071,4.322,2.5,6.03L4.93,17.6C3.864,16.281,3.199,14.686,3.015,13L3.015,13z"/>
<path fill="none" d="M0,0h24v24H0V0z"/>
</svg>
