<svg xmlns="http://www.w3.org/2000/svg" width="18" height="18" viewbox="0 0 18 18"><path stroke="null" d="M6.3 3A6.3 6.3 0 0 0 0 9.3a6.3 6.3 0 0 0 6.3 6.3c.936 0 1.854-.216 2.7-.612.846.396 1.764.612 2.7.612A6.3 6.3 0 0 0 18 9.3 6.3 6.3 0 0 0 11.7 3c-.936 0-1.854.216-2.7.612C8.154 3.216 7.236 3 6.3 3m0 1.8c.306 0 .603.027.9.09C6.048 6.07 5.4 7.653 5.4 9.3c0 1.647.648 3.23 1.8 4.4-.297.064-.594.1-.9.1a4.5 4.5 0 0 1-4.5-4.5 4.5 4.5 0 0 1 4.5-4.5m5.4 0a4.5 4.5 0 0 1 4.5 4.5 4.5 4.5 0 0 1-4.5 4.5c-.306 0-.603-.027-.9-.09 1.152-1.18 1.8-2.763 1.8-4.41 0-1.647-.648-3.23-1.8-4.4.297-.064.594-.1.9-.1M9 5.7c1.134.855 1.8 2.187 1.8 3.6 0 1.413-.666 2.745-1.8 3.6-1.134-.855-1.8-2.187-1.8-3.6 0-1.413.666-2.745 1.8-3.6z"></path></svg>