<svg xmlns="http://www.w3.org/2000/svg" width="24" height="24" viewbox="0 0 24 24"><path d="M23 10.594v-1.47A2.166 2.166 0 0 0 20.8 7h-2.6A2.166 2.166 0 0 0 16 9.125v5.75A2.166 2.166 0 0 0 18.2 17h2.6a2.166 2.166 0 0 0 2.2-2.125v-1.53h-2v1.53c0 .05-.078.125-.2.125h-2.6c-.122 0-.2-.074-.2-.125v-5.75c0-.05.078-.125.2-.125h2.6c.122 0 .2.074.2.125v1.47z"></path><path d="M9 12v4h3.5a1.5 1.5 0 0 0 1.5-1.5v-1a1.5 1.5 0 0 0-1.5-1.5H10M9 12V8h3.5A1.5 1.5 0 0 1 14 9.5v1a1.5 1.5 0 0 1-1.5 1.5H10M1 17V9a1 1 0 0 1 1-1h3a1 1 0 0 1 1 1v8M1 13h5" stroke="#000" stroke-miterlimit="10" stroke-width="2" fill="none"></path><path d="M23 10.594v-1.47A2.166 2.166 0 0 0 20.8 7h-2.6A2.166 2.166 0 0 0 16 9.125v5.75A2.166 2.166 0 0 0 18.2 17h2.6a2.166 2.166 0 0 0 2.2-2.125v-1.53h-2v1.53c0 .05-.078.125-.2.125h-2.6c-.122 0-.2-.074-.2-.125v-5.75c0-.05.078-.125.2-.125h2.6c.122 0 .2.074.2.125v1.47z"></path><path d="M9 12v4h3.5a1.5 1.5 0 0 0 1.5-1.5v-1a1.5 1.5 0 0 0-1.5-1.5H10M9 12V8h3.5A1.5 1.5 0 0 1 14 9.5v1a1.5 1.5 0 0 1-1.5 1.5H10M1 17V9a1 1 0 0 1 1-1h3a1 1 0 0 1 1 1v8M1 13h5" stroke="#000" stroke-miterlimit="10" stroke-width="2" fill="none"></path><path d="M0 0h24v24H0z" fill="none"></path></svg>