<svg xmlns="http://www.w3.org/2000/svg" width="18" height="18" viewbox="0 0 18 18"><g fill="#000"><path d="M0 8h2v2H0z"></path><path d="M0 12h2v2H0z"></path><path d="M0 16h2v2H0z"></path><path d="M5 12h2v2H5z"></path><path d="M5 16h2v2H5z"></path><path d="M5 8h2v2H5z"></path><path d="M2 2v2h14V2H2zM0 0h18v6H0V0z" fill-rule="nonzero"></path><path fill-rule="nonzero" d="M5 2h2v2H5z"></path><path d="M15 13v3c0 1.105-.895 2-2 2H9v-2h4v-4h-2.5L14 8.5l3.5 3.5H15v1z" fill-rule="nonzero"></path></g></svg>