<?xml version="1.0" encoding="utf-8"?>
<!-- Generator: Adobe Illustrator 16.0.0, SVG Export Plug-In . SVG Version: 6.00 Build 0)  -->
<!DOCTYPE svg PUBLIC "-//W3C//DTD SVG 1.1//EN" "http://www.w3.org/Graphics/SVG/1.1/DTD/svg11.dtd">
<svg version="1.1" id="Layer_1" xmlns="http://www.w3.org/2000/svg" xmlns:xlink="http://www.w3.org/1999/xlink" x="0px" y="0px"
	 width="24px" height="24px" viewBox="0 0 24 24" enable-background="new 0 0 24 24" xml:space="preserve">
<path fill="#FFFFFF" d="M11,5h6v2h-6V5z M7,7h2V5H7V7z M11,11h6V9h-6V11z M7,11h2V9H7V11z M11,15h6v-2h-6V15z M7,15h2v-2H7V15z
	 M23,18v2c0,1.656-1.344,3-3,3H6c-1.657,0-3-1.344-3-3V2c0-0.552,0.448-1,1-1h16c0.553,0,1,0.448,1,1v15h1
	C22.553,17,23,17.447,23,18z M8,17h11V3H5v17c0,0.553,0.448,1,1,1s1-0.447,1-1v-2C7,17.447,7.448,17,8,17z M21,19H9v1
	c0,0.341-0.057,0.679-0.17,1H20c0.553,0,1-0.447,1-1V19z"/>
<path fill="none" d="M0,0h24v24H0V0z"/>
</svg>
