<svg xmlns="http://www.w3.org/2000/svg" width="18" height="18" viewbox="0 0 18 18"><g fill="none"><path d="M13 15h3c1.105 0 2-.895 2-2V9h-2v4h-4v-2.5L8.5 14l3.5 3.5V15h1z" fill="#000" fill-rule="nonzero"></path><path fill="#000" d="M8 0v2h2V0z"></path><path fill="#000" d="M12 0v2h2V0z"></path><path fill="#000" d="M16 0v2h2V0z"></path><path fill="#000" d="M12 5v2h2V5z"></path><path fill="#000" d="M16 5v2h2V5z"></path><path fill="#000" d="M8 5v2h2V5z"></path><path stroke="#000" stroke-width="2" d="M1 1v16h4V1z"></path><path fill="#000" fill-rule="nonzero" d="M2 5h2v2H2z"></path></g></svg>